<?xml version="1.0" standalone="no"?>
<!DOCTYPE svg PUBLIC "-//W3C//DTD SVG 20010904//EN"
 "http://www.w3.org/TR/2001/REC-SVG-20010904/DTD/svg10.dtd">
<svg version="1.0" xmlns="http://www.w3.org/2000/svg"
 width="500.000000pt" height="500.000000pt" viewBox="0 0 500.000000 500.000000"
 preserveAspectRatio="xMidYMid meet">
<metadata>
Created by potrace 1.14, written by Peter Selinger 2001-2017
</metadata>
<g transform="translate(0.000000,500.000000) scale(0.100000,-0.100000)"
fill="#000000" stroke="none">
<path d="M1460 4599 c-293 -34 -580 -135 -807 -285 -104 -68 -290 -250 -350
-342 -72 -108 -146 -319 -178 -507 -20 -118 -20 -362 0 -477 30 -171 109 -377
219 -573 106 -189 294 -570 316 -643 12 -37 24 -110 27 -162 11 -186 -42 -379
-197 -715 -189 -412 -198 -442 -143 -485 25 -20 43 -20 965 -20 l939 0 24 25
c29 28 31 59 15 260 -14 165 -3 224 49 276 48 48 84 57 276 69 195 13 297 31
361 63 69 35 136 110 163 183 28 72 38 214 22 299 l-11 60 34 30 c49 43 59 69
52 132 -6 51 -5 55 24 80 54 45 55 55 15 142 -39 87 -46 146 -17 155 9 3 46
10 82 16 129 22 217 95 207 172 -7 52 -80 174 -210 347 -60 80 -121 168 -134
196 -25 48 -25 53 -17 160 15 192 1 319 -60 520 -13 44 -22 82 -20 84 1 2 15
-6 30 -18 49 -38 112 -20 132 37 8 23 4 46 -17 113 -56 172 -153 321 -274 419
-69 56 -215 131 -292 150 -27 7 -97 36 -155 65 -181 90 -351 141 -568 170
-122 16 -378 18 -502 4z"/>
<path d="M4267 3222 c-31 -34 -21 -74 29 -122 209 -204 370 -499 436 -803 19
-87 22 -133 22 -317 1 -185 -2 -229 -22 -316 -65 -296 -196 -550 -392 -758
-71 -76 -90 -102 -90 -125 0 -66 66 -81 125 -30 20 17 70 73 112 123 293 349
430 765 401 1223 -24 386 -190 768 -455 1044 -102 105 -131 120 -166 81z"/>
<path d="M3975 2935 c-14 -13 -25 -33 -25 -45 0 -12 31 -54 74 -99 169 -181
273 -389 311 -621 40 -248 3 -487 -110 -715 -60 -122 -111 -194 -209 -295 -73
-76 -81 -102 -43 -138 40 -38 65 -29 144 53 160 166 270 365 329 600 35 136
43 365 20 510 -19 113 -70 273 -117 367 -89 178 -279 408 -336 408 -8 0 -25
-11 -38 -25z"/>
<path d="M3686 2639 c-43 -34 -34 -60 50 -151 83 -91 151 -213 181 -328 23
-89 23 -282 -1 -368 -36 -132 -98 -240 -198 -348 -63 -66 -69 -88 -38 -122 38
-41 68 -30 150 56 278 292 318 739 95 1083 -54 84 -166 199 -192 199 -11 0
-32 -9 -47 -21z"/>
</g>
</svg>
